<svg xmlns="http://www.w3.org/2000/svg" width="31.002" height="27.005" viewBox="0 0 31.002 27.005"><g transform="translate(0 -1.998)"><path d="M15.5,12.534A5.268,5.268,0,1,0,15.5,2h0Zm0-8.719a3.451,3.451,0,1,1,0,6.9Z" fill="#fff"/><path d="M26.158,12.534a3.33,3.33,0,0,0,0-6.66h0Zm0-4.844a1.514,1.514,0,1,1,0,3.028Z" fill="#fff"/><path d="M26.89,14.593h-1.4a4.117,4.117,0,0,0-3.736,2.383,7.31,7.31,0,0,0-5.4-2.383H14.654a7.31,7.31,0,0,0-5.4,2.383,4.118,4.118,0,0,0-3.736-2.383h-1.4A4.1,4.1,0,0,0,0,18.679H0v6.613a1.78,1.78,0,0,0,1.781,1.774H7.335A2.123,2.123,0,0,0,9.447,29H21.555a2.123,2.123,0,0,0,2.112-1.938h5.491A1.843,1.843,0,0,0,31,25.229h0v-6.55A4.1,4.1,0,0,0,26.89,14.593ZM1.817,18.679a2.285,2.285,0,0,1,2.295-2.27h1.4a2.285,2.285,0,0,1,2.295,2.27h0V19.3c-.611,1.59-.484,2.543-.484,5.948H1.817Zm20.042,8.2a.3.3,0,0,1-.3.3H9.447a.3.3,0,0,1-.3-.3h0V21.92a5.518,5.518,0,0,1,5.511-5.511h1.693a5.518,5.518,0,0,1,5.511,5.511Zm7.327-1.654c0,.031.339.021-5.51.021,0-3.43.125-4.361-.484-5.948h0v-.622a2.285,2.285,0,0,1,2.295-2.27h1.4a2.285,2.285,0,0,1,2.295,2.27Z" fill="#fff"/><path d="M4.844,12.534a3.33,3.33,0,1,0,0-6.66h0Zm0-4.844a1.514,1.514,0,0,1,0,3.028Z" fill="#fff"/></g></svg>