<svg xmlns="http://www.w3.org/2000/svg" width="23.247" height="23.002" viewBox="0 0 23.247 23.002"><g transform="translate(-3.875 0)"><path d="M19.842,3.367A11.712,11.712,0,0,0,3.4,3.37a11.415,11.415,0,0,0,0,16.265,11.712,11.712,0,0,0,16.438,0,11.415,11.415,0,0,0,0-16.265ZM17.6,16.02l0,0h0v0l-.589.579a3.122,3.122,0,0,1-2.925.828A10.354,10.354,0,0,1,11.1,16.1a13.794,13.794,0,0,1-2.36-1.882A13.812,13.812,0,0,1,6.974,12.1,10.687,10.687,0,0,1,5.649,9.447a3.044,3.044,0,0,1,.775-3.132h0l.69-.682a.5.5,0,0,1,.7,0l0,0h0L9.989,7.787a.483.483,0,0,1,0,.689l0,0h0L8.71,9.743A1.023,1.023,0,0,0,8.6,11.084a14.839,14.839,0,0,0,1.53,1.767,14.825,14.825,0,0,0,2.015,1.675,1.058,1.058,0,0,0,1.341-.115h0l1.236-1.242a.5.5,0,0,1,.7,0l0,0h0L17.6,15.332A.483.483,0,0,1,17.6,16.02Z" transform="translate(3.875)" fill="#fff"/></g></svg>