<svg xmlns="http://www.w3.org/2000/svg" width="23.247" height="23.002" viewBox="0 0 23.247 23.002"><g transform="translate(-3.875)"><path d="M11.624,0A11.576,11.576,0,0,0,0,11.5a11.365,11.365,0,0,0,1.76,6.087C1.3,19.18.472,22.19.463,22.222a.438.438,0,0,0,.121.434.453.453,0,0,0,.442.1h0l4.607-1.4A11.65,11.65,0,0,0,23.247,11.5,11.576,11.576,0,0,0,11.624,0Zm0,22.117A10.787,10.787,0,0,1,5.932,20.5a.451.451,0,0,0-.237-.067.459.459,0,0,0-.131.019h0L1.54,21.679c.3-1.067.827-2.976,1.135-4.039a.44.44,0,0,0-.055-.363A10.494,10.494,0,0,1,.894,11.5a10.73,10.73,0,0,1,21.459,0A10.686,10.686,0,0,1,11.624,22.117Z" transform="translate(3.875)" fill="#fff"/><path d="M19.217,14.211c-.825-.453-1.528-.908-2.041-1.24-.392-.253-.675-.436-.882-.539a1.024,1.024,0,0,0-1.187.083.443.443,0,0,0-.056.067,6.244,6.244,0,0,1-1.619,1.8,10.783,10.783,0,0,1-2.749-1.761A5.9,5.9,0,0,1,8.509,9.9c.811-.825,1.1-1.345,1.1-1.936a12.465,12.465,0,0,0-1.7-3.409c-.261-.257-.848-.3-1.745-.121a.453.453,0,0,0-.228.121c-.109.107-2.651,2.672-1.443,5.78,1.326,3.411,4.729,7.376,9.069,8.02a9.5,9.5,0,0,0,1.388.109,4.1,4.1,0,0,0,4.484-3.792A.439.439,0,0,0,19.217,14.211ZM13.7,17.477C9.113,16.8,6.223,12.3,5.335,10.015c-.881-2.265.743-4.284,1.151-4.741a3.407,3.407,0,0,1,.827-.057A15.822,15.822,0,0,1,8.718,7.962c0,.232-.076.556-.987,1.457a.438.438,0,0,0-.131.313c0,2.316,4.937,5.529,5.812,5.529.76,0,1.752-1.265,2.317-2.089a.427.427,0,0,1,.166.051c.161.08.44.26.793.488.466.3,1.085.7,1.815,1.116C18.17,16.406,17.243,18,13.7,17.477Z" transform="translate(3.875)" fill="#fff"/></g></svg>