<svg xmlns="http://www.w3.org/2000/svg" width="23.247" height="23.002" viewBox="0 0 23.247 23.002"><g transform="translate(-3.875)"><path d="M11.624,0a11.5,11.5,0,1,0,0,23,11.5,11.5,0,1,0,0-23Zm0,21.468A10.032,10.032,0,0,1,1.55,11.5a10.074,10.074,0,0,1,20.148,0A10.032,10.032,0,0,1,11.624,21.468Z" transform="translate(3.875)" fill="#027373"/><path d="M17.777,7.275a.781.781,0,0,0-1.1,0h0L9.782,14.1,6.567,10.919a.781.781,0,0,0-1.1,0,.761.761,0,0,0,0,1.084h0l3.763,3.724a.781.781,0,0,0,1.1,0h0l7.447-7.368A.761.761,0,0,0,17.777,7.275Z" transform="translate(3.875)" fill="#027373"/></g></svg>