<svg xmlns="http://www.w3.org/2000/svg" width="61" height="48.347" viewBox="0 0 61 48.347"><g transform="translate(0 -6.326)"><path d="M59.916,11.536A4.552,4.552,0,0,0,56.8,9.929h0L13.842,6.343A4.581,4.581,0,0,0,8.9,10.512h0L8.032,18.62H4.582A4.587,4.587,0,0,0,0,23.2H0v26.89a4.587,4.587,0,0,0,4.582,4.582H47.688a4.587,4.587,0,0,0,4.582-4.582h0V45.73l1.53.128q.194.016.385.016a4.588,4.588,0,0,0,4.562-4.2h0l2.238-26.8a4.552,4.552,0,0,0-1.068-3.34h0ZM4.582,21H47.688a2.2,2.2,0,0,1,2.2,2.2h0v2.45H2.383V23.2a2.2,2.2,0,0,1,2.2-2.2Zm-2.2,7.032h47.5v4.943H2.383ZM47.688,52.291H4.582a2.2,2.2,0,0,1-2.2-2.2h0V35.361h47.5V50.092a2.2,2.2,0,0,1-2.2,2.2ZM58.609,14.678l-2.238,26.8A2.2,2.2,0,0,1,54,43.483h0l-1.728-.144V23.2a4.587,4.587,0,0,0-4.582-4.582H10.429l.839-7.868c0-.009,0-.018,0-.027a2.2,2.2,0,0,1,2.374-2.008h0L56.6,12.3a2.2,2.2,0,0,1,2.008,2.374Z" fill="#80b9c0"/><path d="M44.9,38.9H33.434a1.191,1.191,0,0,0-1.191,1.191h0v7.481a1.191,1.191,0,0,0,1.191,1.191H44.9a1.191,1.191,0,0,0,1.191-1.191h0V40.094A1.191,1.191,0,0,0,44.9,38.9Zm-1.191,7.481H34.626v-5.1h9.083Z" fill="#80b9c0"/></g></svg>