<svg xmlns="http://www.w3.org/2000/svg" width="20.999" height="20.893" viewBox="0 0 20.999 20.893"><g transform="translate(0 -0.08)"><path d="M19.381,13.125a.523.523,0,0,0-.523.523h0v4.643a1.571,1.571,0,0,1-1.569,1.569H2.615a1.571,1.571,0,0,1-1.569-1.569h0V4.664A1.571,1.571,0,0,1,2.615,3.095H7.258a.523.523,0,0,0,0-1.046H2.615A2.618,2.618,0,0,0,0,4.664H0V18.292a2.618,2.618,0,0,0,2.615,2.615H17.289A2.618,2.618,0,0,0,19.9,18.292h0V13.648A.523.523,0,0,0,19.381,13.125Z" transform="translate(0 0.066)"/><path d="M19.7.7a2.353,2.353,0,0,0-3.328,0h0l-9.33,9.33a.523.523,0,0,0-.134.23h0l-1.227,4.43a.523.523,0,0,0,.644.644h0l4.43-1.227a.523.523,0,0,0,.23-.134h0l9.33-9.33a2.356,2.356,0,0,0,0-3.328h0ZM8.178,10.373l7.636-7.636L18.277,5.2,10.64,12.836Zm-.492.987,1.968,1.968-2.722.754ZM19.571,3.905l-.555.555L16.554,2l.555-.555a1.307,1.307,0,0,1,1.849,0h0l.614.614A1.309,1.309,0,0,1,19.571,3.905Z" transform="translate(0 0.066)"/></g></svg>