<svg xmlns="http://www.w3.org/2000/svg" width="226.765" height="168.036" viewBox="0 0 226.765 168.036"><g transform="translate(-39.121 -27.322)"><path d="M251.351,195.13l12.939-54.188a20.023,20.023,0,0,0-.019-9.31h0L244.91,52.725a10.473,10.473,0,0,0-8.721-7.866h0l-125.8-17.4a10.44,10.44,0,0,0-8.493,2.66h0L44,83.3a10.491,10.491,0,0,0-3.382,7.847h0l1.444,104.006H251.351Z" fill="#f4f4f4"/><path d="M251.408,195.111l12.939-54.188a20.023,20.023,0,0,0-.019-9.31h0L244.986,52.687a10.473,10.473,0,0,0-8.721-7.866h0l-125.8-17.4a10.44,10.44,0,0,0-8.493,2.66h0l-57.912,53.2a10.491,10.491,0,0,0-3.382,7.847h0L42.123,195.13H251.408Z" transform="translate(1)" fill="#f4f4f4"/><path d="M231.173,150.879h-9.861a.5.5,0,0,1,.494.494H229.9v.494h1.273a.5.5,0,0,0,.494-.494A.491.491,0,0,0,231.173,150.879Z" fill="#b2b6bb"/><path d="M221.312,151.867h-1.064l1.558,1.026h-1.558v33.155H229.9V151.867Z" fill="#b2b6bb"/><path d="M221.806,151.392a.5.5,0,0,1-.494.494H229.9v-.494Z" fill="#b2b6bb"/><path d="M159.543,174.078V183.5h32.775v-9.424Zm27.265,3.268a1.088,1.088,0,0,1-.209.209.779.779,0,0,1-.418.133.323.323,0,0,1-.133-.019,135590274999.961,135590274999.961,0,0,1-.114-.038.756.756,0,0,1,0-1.444.07.07,0,0,0,.057-.019c.019,0,.038-.019.057-.019.038,0,.1-.019.133-.019a.419.419,0,0,1,.152.019.352.352,0,0,1,.133.038.914.914,0,0,1,.3.228.657.657,0,0,1,.133.228.6.6,0,0,1,.038.266A.9.9,0,0,1,186.808,177.346Z" fill="#dadddf"/><path d="M159.334,183.711v-28.8h33v-2.261l-34.428-.3v33.706h34.428v-2.337Z" fill="#dadddf"/><path d="M192.337,155.135H159.543v9.2h32.775v-9.2Zm-5.453,3.173a1.417,1.417,0,0,1-.133.228.914.914,0,0,1-.3.228.274.274,0,0,1-.133.038.418.418,0,0,1-.152.019.282.282,0,0,1-.133-.019,374.143,374.143,0,0,1-.114-.038.756.756,0,0,1,0-1.444.07.07,0,0,0,.057-.019c.019,0,.038-.019.057-.019.038,0,.1-.019.133-.019a.418.418,0,0,1,.152.019.827.827,0,0,1,.361.19h0l.019.019a.762.762,0,0,1,.228.532A.457.457,0,0,1,186.884,158.308Z" fill="#dadddf"/><path d="M192.337,164.54H159.543v9.31h32.775v-9.31Zm-5.453,3.116a1.416,1.416,0,0,1-.133.228.915.915,0,0,1-.3.228.275.275,0,0,1-.133.038.418.418,0,0,1-.152.019.282.282,0,0,1-.133-.019,748.2,748.2,0,0,0-.114-.038.756.756,0,0,1,0-1.444.07.07,0,0,0,.057-.019c.019,0,.038-.019.057-.019.038,0,.1-.019.133-.019a.418.418,0,0,1,.152.019.352.352,0,0,1,.133.038.915.915,0,0,1,.3.228.657.657,0,0,1,.133.228.95.95,0,0,1,0,.532Z" fill="#dadddf"/><path d="M192.337,152.646v2.261h26.372v28.8H192.337v2.337h27.911V152.893Z" fill="#dadddf"/><path d="M218.481,174.078H192.337V183.5h26.144Z" fill="#dadddf"/><path d="M218.481,164.54H192.337v9.31h26.144Z" fill="#dadddf"/><path d="M218.481,155.135H192.337v9.2h26.144Z" fill="#dadddf"/><path d="M159.334,164.331h.209v-9.2h32.794v-.228h-33Z" fill="#b2b6bb"/><path d="M159.543,183.483v-9.4h-.209v9.633h33v-.228Z" fill="#b2b6bb"/><path d="M159.562,164.54h-.228v9.31h.228Z" fill="#b2b6bb"/><path d="M218.481,155.135v9.2h.228v-9.424H192.337v.228Z" fill="#b2b6bb"/><path d="M218.709,164.54h-.228v9.31h.228Z" fill="#b2b6bb"/><path d="M218.481,183.483H192.337v.228h26.372v-9.633h-.228Z" fill="#b2b6bb"/><path d="M192.337,151.392h28.975V150.9H156.769a.494.494,0,1,0,0,.988h1.121v-.494Z" fill="#dadddf"/><path d="M221.312,151.392h.494a.5.5,0,0,0-.494-.494h-.019v.494Z" fill="#dadddf"/><path d="M221.312,151.392h-1.064v.494h1.064Z" fill="#dadddf"/><path d="M221.312,151.867a.491.491,0,0,0,.494-.494h-.494Z" fill="#dadddf"/><path d="M192.337,151.392H157.909v.494h34.428Z" fill="#dadddf"/><path d="M220.248,151.392H192.337v.494h27.911Z" fill="#dadddf"/><path d="M192.318,173.85H159.543v.228h32.775Z" fill="#b2b6bb"/><path d="M218.481,173.85H192.337v.228h26.144Z" fill="#b2b6bb"/><path d="M159.562,173.85h-.228v.228h.228Z" fill="#b2b6bb"/><path d="M218.709,173.85h-.228v.228h.228Z" fill="#b2b6bb"/><path d="M192.318,164.331H159.543v.228h32.775Z" fill="#b2b6bb"/><path d="M218.481,164.331H192.337v.228h26.144Z" fill="#b2b6bb"/><path d="M159.562,164.331h-.228v.228h.228Z" fill="#b2b6bb"/><path d="M218.709,164.331h-.228v.228h.228Z" fill="#b2b6bb"/><path d="M186.941,158.061a.69.69,0,0,0-.228-.532A.728.728,0,0,1,186.941,158.061Z" fill="#b2b6bb"/><path d="M186.447,158.061a.742.742,0,0,0-.513-.722.756.756,0,0,0,0,1.444A.778.778,0,0,0,186.447,158.061Z" fill="#b2b6bb"/><path d="M185.934,157.339a.07.07,0,0,0,.057-.019C185.953,157.32,185.934,157.32,185.934,157.339Z" fill="#dadddf"/><path d="M185.934,157.339a.07.07,0,0,0,.057-.019C185.953,157.32,185.934,157.32,185.934,157.339Z" fill="rgba(0,0,0,0.15)"/><path d="M185.934,158.783a.07.07,0,0,1,.057.019C185.953,158.783,185.953,158.783,185.934,158.783Z" fill="#dadddf"/><path d="M185.934,158.783a.07.07,0,0,1,.057.019C185.953,158.783,185.953,158.783,185.934,158.783Z" fill="rgba(0,0,0,0.15)"/><path d="M186.694,157.491a.669.669,0,0,0-.361-.19.418.418,0,0,0-.152-.019.282.282,0,0,0-.133.019.07.07,0,0,0-.057.019c-.019,0-.038,0-.038.019a.765.765,0,0,1,0,1.444.066.066,0,0,1,.038.019c.019,0,.038.019.057.019.038,0,.1.019.133.019a.418.418,0,0,0,.152-.019.352.352,0,0,0,.133-.038.915.915,0,0,0,.3-.228.657.657,0,0,0,.133-.228.6.6,0,0,0,.038-.266.69.69,0,0,0-.228-.532C186.694,157.51,186.694,157.51,186.694,157.491Z" fill="#b2b6bb"/><path d="M186.694,157.491a.669.669,0,0,0-.361-.19.418.418,0,0,0-.152-.019.282.282,0,0,0-.133.019.07.07,0,0,0-.057.019c-.019,0-.038,0-.038.019a.765.765,0,0,1,0,1.444.066.066,0,0,1,.038.019c.019,0,.038.019.057.019.038,0,.1.019.133.019a.418.418,0,0,0,.152-.019.352.352,0,0,0,.133-.038.915.915,0,0,0,.3-.228.657.657,0,0,0,.133-.228.6.6,0,0,0,.038-.266.69.69,0,0,0-.228-.532C186.694,157.51,186.694,157.51,186.694,157.491Z" fill="rgba(0,0,0,0.15)"/><path d="M186.447,167.409a.742.742,0,0,0-.513-.722.756.756,0,0,0,0,1.444A.778.778,0,0,0,186.447,167.409Z" fill="#b2b6bb"/><path d="M185.934,166.668h0a.07.07,0,0,0,.057-.019A.147.147,0,0,1,185.934,166.668Z" fill="#dadddf"/><path d="M185.934,166.668h0a.07.07,0,0,0,.057-.019A.147.147,0,0,1,185.934,166.668Z" fill="rgba(0,0,0,0.15)"/><path d="M185.934,168.131a.07.07,0,0,1,.057.019c-.038-.019-.038-.019-.057-.019Z" fill="#dadddf"/><path d="M185.934,168.131a.07.07,0,0,1,.057.019c-.038-.019-.038-.019-.057-.019Z" fill="rgba(0,0,0,0.15)"/><path d="M186.751,166.915a.914.914,0,0,0-.3-.228.275.275,0,0,0-.133-.038.419.419,0,0,0-.152-.019.282.282,0,0,0-.133.019.07.07,0,0,0-.057.019c-.019,0-.038,0-.038.019a.765.765,0,0,1,0,1.444.066.066,0,0,1,.038.019c.019,0,.038.019.057.019.038,0,.1.019.133.019a.418.418,0,0,0,.152-.019.352.352,0,0,0,.133-.038.915.915,0,0,0,.3-.228.657.657,0,0,0,.133-.228.6.6,0,0,0,.038-.266,1.121,1.121,0,0,0-.038-.266A.456.456,0,0,0,186.751,166.915Z" fill="#b2b6bb"/><path d="M186.751,166.915a.914.914,0,0,0-.3-.228.275.275,0,0,0-.133-.038.419.419,0,0,0-.152-.019.282.282,0,0,0-.133.019.07.07,0,0,0-.057.019c-.019,0-.038,0-.038.019a.765.765,0,0,1,0,1.444.066.066,0,0,1,.038.019c.019,0,.038.019.057.019.038,0,.1.019.133.019a.418.418,0,0,0,.152-.019.352.352,0,0,0,.133-.038.915.915,0,0,0,.3-.228.657.657,0,0,0,.133-.228.6.6,0,0,0,.038-.266,1.121,1.121,0,0,0-.038-.266A.456.456,0,0,0,186.751,166.915Z" fill="rgba(0,0,0,0.15)"/><path d="M186.447,176.909a.742.742,0,0,0-.513-.722.756.756,0,0,0,0,1.444A.742.742,0,0,0,186.447,176.909Z" fill="#b2b6bb"/><path d="M186.6,177.536a1.089,1.089,0,0,0,.209-.209A.549.549,0,0,1,186.6,177.536Z" fill="#b2b6bb"/><path d="M185.934,176.187a.07.07,0,0,0,.057-.019A.147.147,0,0,1,185.934,176.187Z" fill="#dadddf"/><path d="M185.934,176.187a.07.07,0,0,0,.057-.019A.147.147,0,0,1,185.934,176.187Z" fill="rgba(0,0,0,0.15)"/><path d="M185.934,177.631a.07.07,0,0,1,.057.019C185.953,177.65,185.953,177.631,185.934,177.631Z" fill="#dadddf"/><path d="M185.934,177.631a.07.07,0,0,1,.057.019C185.953,177.65,185.953,177.631,185.934,177.631Z" fill="rgba(0,0,0,0.15)"/><path d="M186.751,176.434a.914.914,0,0,0-.3-.228.274.274,0,0,0-.133-.038.418.418,0,0,0-.152-.019.282.282,0,0,0-.133.019.07.07,0,0,0-.057.019c-.019,0-.038,0-.038.019a.765.765,0,0,1,0,1.444.066.066,0,0,1,.038.019c.019,0,.038.019.057.019.038,0,.1.019.133.019a.779.779,0,0,0,.418-.133,1.088,1.088,0,0,0,.209-.209.779.779,0,0,0,.133-.418,1.121,1.121,0,0,0-.038-.266A.442.442,0,0,0,186.751,176.434Z" fill="#b2b6bb"/><path d="M186.751,176.434a.914.914,0,0,0-.3-.228.274.274,0,0,0-.133-.038.418.418,0,0,0-.152-.019.282.282,0,0,0-.133.019.07.07,0,0,0-.057.019c-.019,0-.038,0-.038.019a.765.765,0,0,1,0,1.444.066.066,0,0,1,.038.019c.019,0,.038.019.057.019.038,0,.1.019.133.019a.779.779,0,0,0,.418-.133,1.088,1.088,0,0,0,.209-.209.779.779,0,0,0,.133-.418,1.121,1.121,0,0,0-.038-.266A.442.442,0,0,0,186.751,176.434Z" fill="rgba(0,0,0,0.15)"/><path d="M221.806,152.893l-1.558-1.026v1.026Z" fill="#b2b6bb"/><path d="M192.337,151.867H157.909v.475l34.428.3Z" fill="#b2b6bb"/><path d="M192.337,152.646l27.911.247v-1.026H192.337Z" fill="#b2b6bb"/><path d="M226.727,190.76l1.026,4.047a.508.508,0,0,0,.475.342.562.562,0,0,0,.19-.038h0l-.76-4.1Z" fill="#dadddf"/><path d="M225.53,186.048l1.2,4.712Z" fill="#b2b6bb"/><path d="M226.727,190.76l.931.228.76,4.1c.019,0,.019-.019.038-.019a.066.066,0,0,0,.038-.019c.019,0,.019-.019.038-.019l.038-.038h0l.019-.019c.019-.019.038-.057.057-.076a.019.019,0,0,1,.019-.019c0-.019.019-.038.019-.057v-.038a.144.144,0,0,1,.019-.076v-.038a.142.142,0,0,0-.019-.1h0l-.7-7.79-.057-.7H225.53Z" fill="#b2b6bb"/><path d="M217.094,186.732l-.228-.684,2.223,8.74a.508.508,0,0,0,.475.342.562.562,0,0,0,.19-.038h0l-1.292-8.113Z" fill="#dadddf"/><path d="M220.058,194.636v-.1h0l-.7-7.79.7,7.79Z" fill="#b2b6bb"/><path d="M216.866,186.048l.228.684,1.368.266,1.292,8.113c.019,0,.019-.019.038-.019a.066.066,0,0,0,.038-.019c.019,0,.019-.019.038-.019l.038-.038h0l.019-.019c.019-.019.038-.057.057-.076A.019.019,0,0,1,220,194.9c0-.019.019-.038.019-.057v-.038a.144.144,0,0,1,.019-.076v-.038a.143.143,0,0,0-.019-.1h0l-.7-7.79-.057-.7Z" fill="#b2b6bb"/><path d="M168.72,190.57l-.817-.209-.38,4.18a.512.512,0,0,0,.494.608H168Z" fill="#dadddf"/><path d="M168.3,195.054a.512.512,0,0,1-.285.1A.722.722,0,0,0,168.3,195.054Z" fill="#b2b6bb"/><path d="M168.492,194.807a.144.144,0,0,1-.038.076c.019-.038.019-.057.038-.076h0l2.223-8.74Z" fill="#b2b6bb"/><path d="M170.715,186.048H168.3l-.4,4.313.817.209L168,195.13h.019a.467.467,0,0,0,.285-.1.645.645,0,0,0,.114-.114c.019-.019.038-.038.038-.057.019-.019.019-.038.038-.076h0Z" fill="#b2b6bb"/><path d="M160.341,186.789l-.988-.19-.722,7.942a.512.512,0,0,0,.494.608h-.019Z" fill="#dadddf"/><path d="M159.334,195.092a.358.358,0,0,1-.152.038A.358.358,0,0,0,159.334,195.092Z" fill="#b2b6bb"/><path d="M159.277,186.6h.076l.038-.551Z" fill="#b2b6bb"/><path d="M159.391,186.048l-.057.551.988.19-1.254,8.341h.1a.447.447,0,0,0,.152-.038c.019-.019.038-.019.057-.038a.644.644,0,0,0,.114-.114.477.477,0,0,0,.076-.133h0l2.223-8.74Z" fill="#b2b6bb"/><path d="M186.219,76.266c.076-2.831.209-8.835.285-11.666a1.566,1.566,0,0,0-1.52-1.6h0l-11.666-.285a1.566,1.566,0,0,0-1.6,1.52h0L171.437,75.9a1.566,1.566,0,0,0,1.52,1.6c2.831.076,8.835.209,11.666.285A1.578,1.578,0,0,0,186.219,76.266Z" fill="#ddd"/><path d="M186.219,76.266c.076-2.831.209-8.835.285-11.666a1.566,1.566,0,0,0-1.52-1.6h0l-11.666-.285a1.566,1.566,0,0,0-1.6,1.52h0L171.437,75.9a1.566,1.566,0,0,0,1.52,1.6c2.831.076,8.835.209,11.666.285A1.578,1.578,0,0,0,186.219,76.266Z" fill="none" stroke="#858990" stroke-width="0.258" stroke-dasharray="2.4 2.4"/><path d="M184.091,73.416c-.19-2.831-.57-8.816-.76-11.647a1.552,1.552,0,0,0-1.653-1.444h0l-11.647.76a1.552,1.552,0,0,0-1.444,1.653h0l.76,11.647A1.552,1.552,0,0,0,171,75.829c2.831-.19,8.816-.57,11.647-.76A1.541,1.541,0,0,0,184.091,73.416Z" fill="#fff"/><path d="M175.94,64.676l-.779,2.166a.182.182,0,0,1-.171.133h0l-2.261.38a.212.212,0,0,0-.1.38h0l1.805,1.406a.226.226,0,0,1,.076.209h0l-.342,2.28a.207.207,0,0,0,.323.209h0l1.9-1.292a.208.208,0,0,1,.209-.019h0l2.052,1.026a.215.215,0,0,0,.3-.247h0l-.627-2.2a.214.214,0,0,1,.057-.209h0l1.615-1.634a.212.212,0,0,0-.152-.361h0l-2.3-.076a.209.209,0,0,1-.19-.114h0L176.3,64.676A.188.188,0,0,0,175.94,64.676Z" fill="#858990"/><path d="M156.427,117.876H126.35a.8.8,0,0,1-.8-.8h0v-16.72a.8.8,0,0,1,.8-.8h30.058a.8.8,0,0,1,.8.8h0v16.72A.775.775,0,0,1,156.427,117.876Z" fill="#858990"/><path d="M155.705,117.876H125.647a.8.8,0,0,1-.8-.8h0v-16.72a.8.8,0,0,1,.8-.8h30.058a.8.8,0,0,1,.8.8h0v16.72A.8.8,0,0,1,155.705,117.876Z" fill="#ddd"/><path d="M134.843,104.9h-1.121l-2.793,3.933,2.793,3.933h1.121l1.083-1.083-2.85-2.85,2.85-2.85Z" fill="#858990"/><path d="M133.722,104.9l-3.933,3.933,3.933,3.933,1.083-1.083-2.85-2.85,2.85-2.85Z" fill="#3f4249"/><path d="M148.086,104.9h-1.121l.133,1.178,2.755,2.755-2.755,2.755-.133,1.178h1.121l3.933-3.933Z" fill="#858990"/><path d="M146.965,104.9l-1.083,1.083,2.85,2.85-2.85,2.85,1.083,1.083,3.933-3.933Z" fill="#3f4249"/><path d="M141.588,101.916l-3.9,13.338h1.121l5.32-12.749-1.425-.589Z" fill="#858990"/><path d="M136.268,114.665l1.425.589,5.32-12.749-1.425-.589Z" fill="#3f4249"/><path d="M248.2,122.93a5.776,5.776,0,1,1,5.776-5.776A5.773,5.773,0,0,1,248.2,122.93Z" fill="#ddd"/><path d="M249.888,116.47a.6.6,0,0,0-.437.171h0l-1.862-1.083c0-.038.019-.076.019-.114a.7.7,0,0,0-1.406,0,.69.69,0,0,0,.7.7.6.6,0,0,0,.437-.171h0l1.862,1.083c0,.038-.019.076-.019.114a.241.241,0,0,0,.019.114h0l-1.862,1.083a.692.692,0,0,0-.437-.171.7.7,0,0,0-.7.7.69.69,0,0,0,.7.7.7.7,0,0,0,.7-.7.241.241,0,0,0-.019-.114h0l1.862-1.083a.692.692,0,0,0,.437.171.7.7,0,1,0,0-1.406Z" fill="#858990"/><path d="M209.722,70.129V100.7a.762.762,0,0,0,.76.76h46.949a.762.762,0,0,0,.76-.76h0V70.129a.762.762,0,0,0-.76-.76H210.482A.762.762,0,0,0,209.722,70.129Z" fill="#027373"/><path d="M208.867,70.129V100.7a.762.762,0,0,0,.76.76h46.949a.762.762,0,0,0,.76-.76h0V70.129a.762.762,0,0,0-.76-.76H209.627A.75.75,0,0,0,208.867,70.129Z" transform="translate(-0.589)" fill="#027373"/><path d="M208.867,70.129V100.7a.762.762,0,0,0,.76.76h46.949a.762.762,0,0,0,.76-.76h0V70.129a.762.762,0,0,0-.76-.76H209.627A.75.75,0,0,0,208.867,70.129Z" transform="translate(0 -1.209)" fill="rgba(255,255,255,0.69)"/><path d="M237.462,85.424a5.51,5.51,0,1,1-5.51-5.51A5.514,5.514,0,0,1,237.462,85.424Z" fill="#027373"/><path d="M230.869,87.742V83.087l3.458,2.337Z" fill="#fff"/><path d="M256.576,101.46H209.608a.742.742,0,0,1-.741-.741h0V98.705h48.469v2.014A.771.771,0,0,1,256.576,101.46Z" fill="#fff"/><path d="M252.491,99.883H212.249v.494h40.242Z" fill="#b1b5ba"/><path d="M210.938,100.871h-1.273a.163.163,0,0,1-.152-.152h0V99.446a.163.163,0,0,1,.152-.152h1.273a.163.163,0,0,1,.152.152h0v1.273A.14.14,0,0,1,210.938,100.871Z" fill="#b1b5ba"/><path d="M210.2,99.693h-.228v.779h.228Z" fill="#61656d"/><path d="M210.615,99.693h-.228v.779h.228Z" fill="#61656d"/><path d="M256.6,100.928h-1.273a.163.163,0,0,1-.152-.152h0V99.5a.163.163,0,0,1,.152-.152H256.6a.163.163,0,0,1,.152.152h0v1.273A.15.15,0,0,1,256.6,100.928Z" fill="#c7c7c7"/><path d="M255.7,99.94h-.3v.38h.3Z" fill="#61656d"/><path d="M256.044,100.586l-.456-.247v-.4l.456-.247Z" fill="#61656d"/><path d="M256.272,99.845l.076-.076a.523.523,0,0,1,.152.285.47.47,0,0,1-.152.437l-.076-.076a.387.387,0,0,0,.114-.285A.284.284,0,0,0,256.272,99.845Z" fill="#61656d"/><path d="M256.215,100.358l-.076-.076a.231.231,0,0,0,0-.3l.076-.076A.347.347,0,0,1,256.215,100.358Z" fill="#61656d"/><path d="M220.343,100.149a.382.382,0,0,0,.076.247h-8.227V99.9h8.227A.35.35,0,0,0,220.343,100.149Z" fill="#61656d"/><path d="M221.122,100.149a.625.625,0,0,1-.076.323.77.77,0,0,1-.684.418.721.721,0,0,1-.665-.418.624.624,0,0,1-.076-.323.9.9,0,0,1,.076-.323.741.741,0,0,1,.665-.418.721.721,0,0,1,.665.418A.467.467,0,0,1,221.122,100.149Z" fill="#61656d"/><path d="M210.558,71.421a.475.475,0,1,0-.475-.475A.475.475,0,0,0,210.558,71.421Z" fill="#4d61fc"/><path d="M212.306,71.421a.475.475,0,1,0-.475-.475A.475.475,0,0,0,212.306,71.421Z" fill="#61656d"/><path d="M214.035,71.421a.475.475,0,1,0-.475-.475A.475.475,0,0,0,214.035,71.421Z" fill="#21252b"/><path d="M215.194,126.464h19.551a1.362,1.362,0,0,1,1.368,1.368h0v25.726a1.362,1.362,0,0,1-1.368,1.368H215.194a1.362,1.362,0,0,1-1.368-1.368h0V127.832A1.374,1.374,0,0,1,215.194,126.464Z" fill="#b1b5ba"/><path d="M214.548,126.464H234.1a1.362,1.362,0,0,1,1.368,1.368h0v25.726a1.362,1.362,0,0,1-1.368,1.368H214.548a1.362,1.362,0,0,1-1.368-1.368h0V127.832A1.374,1.374,0,0,1,214.548,126.464Z" fill="#fff"/><path d="M228.969,140.847h-9.31a.681.681,0,0,1-.684-.684h0v-9.31a.681.681,0,0,1,.684-.684h9.31a.681.681,0,0,1,.684.684h0v9.31A.681.681,0,0,1,228.969,140.847Z" fill="#4d61fc"/><path d="M228.969,140.847h-9.31a.681.681,0,0,1-.684-.684h0v-9.31a.681.681,0,0,1,.684-.684h9.31a.681.681,0,0,1,.684.684h0v9.31A.681.681,0,0,1,228.969,140.847Z" fill="rgba(255,255,255,0.69)"/><path d="M224.295,133.741a.95.95,0,1,0-.95-.95A.95.95,0,0,0,224.295,133.741Z" fill="#027373"/><path d="M218.975,140.163V137.6l3.61-2.7a.372.372,0,0,1,.475.019h0l1.254,1.1,2.546-1.995a.376.376,0,0,1,.494.019h0l2.28,1.995v4.142a.681.681,0,0,1-.684.684h-9.31A.707.707,0,0,1,218.975,140.163Z" fill="#027373"/><path d="M230.033,145.1H218.576a.341.341,0,0,1-.342-.342h0v-.7a.341.341,0,0,1,.342-.342h11.457a.341.341,0,0,1,.342.342h0v.7A.341.341,0,0,1,230.033,145.1Z" fill="#027373"/><path d="M230.033,148.466H218.6a.342.342,0,1,1,0-.684h11.438a.342.342,0,1,1,0,.684Z" fill="#61656d"/><path d="M227.981,151.221h-7.334a.342.342,0,1,1,0-.684h7.334a.342.342,0,0,1,0,.684Z" fill="#61656d"/><path d="M110.561,48.659h50.6a1.634,1.634,0,0,1,1.634,1.634h0V78.014a1.634,1.634,0,0,1-1.634,1.634h-50.6a1.634,1.634,0,0,1-1.634-1.634h0V50.293A1.634,1.634,0,0,1,110.561,48.659Z" fill="#4d61fc"/><path d="M110.561,48.659h50.6a1.634,1.634,0,0,1,1.634,1.634h0V78.014a1.634,1.634,0,0,1-1.634,1.634h-50.6a1.634,1.634,0,0,1-1.634-1.634h0V50.293A1.634,1.634,0,0,1,110.561,48.659Z" fill="#027373"/><path d="M109.782,48.659h50.6a1.634,1.634,0,0,1,1.634,1.634h0V78.014a1.634,1.634,0,0,1-1.634,1.634h-50.6a1.634,1.634,0,0,1-1.634-1.634h0V50.293A1.622,1.622,0,0,1,109.782,48.659Z" transform="translate(-2.09)" fill="#027373"/><path d="M109.782,48.659h50.6a1.634,1.634,0,0,1,1.634,1.634h0V78.014a1.634,1.634,0,0,1-1.634,1.634h-50.6a1.634,1.634,0,0,1-1.634-1.634h0V50.293A1.622,1.622,0,0,1,109.782,48.659Z" transform="translate(-1.09 0.009)" fill="rgba(255,255,255,0.6)"/><path d="M155.762,71.554H142.88a.953.953,0,0,1-.95-.95h0V57.722a.953.953,0,0,1,.95-.95h12.882a.953.953,0,0,1,.95.95h0V70.6A.965.965,0,0,1,155.762,71.554Z" fill="#4d61fc"/><path d="M155.762,71.554H142.88a.953.953,0,0,1-.95-.95h0V57.722a.953.953,0,0,1,.95-.95h12.882a.953.953,0,0,1,.95.95h0V70.6A.965.965,0,0,1,155.762,71.554Z" fill="#4d61fc"/><path d="M155.762,71.554H142.88a.953.953,0,0,1-.95-.95h0V57.722a.953.953,0,0,1,.95-.95h12.882a.953.953,0,0,1,.95.95h0V70.6A.965.965,0,0,1,155.762,71.554Z" fill="rgba(255,255,255,0.8)"/><path d="M149.264,61.731a1.311,1.311,0,1,0-1.311-1.311A1.311,1.311,0,0,0,149.264,61.731Z" fill="#fff"/><path d="M141.93,70.623V67.07l5-3.724a.542.542,0,0,1,.665.019h0l1.729,1.52,3.515-2.755a.544.544,0,0,1,.684.019h0l3.173,2.774v5.719a.953.953,0,0,1-.95.95H142.88A1,1,0,0,1,141.93,70.623Z" fill="#027373"/><path d="M136,58.653H114a.551.551,0,0,1-.551-.551h0v-.8a.551.551,0,0,1,.551-.551h22a.551.551,0,0,1,.551.551h0v.8A.54.54,0,0,1,136,58.653Z" fill="#fff"/><path d="M136.078,63.631H113.924a.494.494,0,0,1,0-.988h22.154a.494.494,0,0,1,0,.988Z" fill="#023859"/><path d="M136.078,67.621H113.924a.494.494,0,1,1,0-.988h22.154a.494.494,0,0,1,0,.988Z" fill="#023859"/><path d="M216.334,60.477a5.776,5.776,0,1,0-5.776-5.776A5.776,5.776,0,0,0,216.334,60.477Z" fill="#ddd"/><path d="M214.89,53.922h.494l.969-1.444.076-.817a.187.187,0,0,1,.266-.152c.209.1.418.38.437,1.178v.95h0l1.5.019a.341.341,0,0,1,.342.342c.019.57.038,1.71.038,2.356a.971.971,0,0,1-.665.95.526.526,0,0,1-.171.019c-.4,0-2.451-.323-2.451-.323h-.836Z" fill="#858990"/><path d="M213.484,53.922l.3,3.116h.836V53.922Z" fill="#858990"/><path d="M168.568,134.6a6.118,6.118,0,1,1,6.118-6.118A6.114,6.114,0,0,1,168.568,134.6Z" fill="#ddd"/><path d="M170.525,125.856a.217.217,0,1,0-.418.114h0v.038l-4.256,2.3a.212.212,0,0,0-.266-.114.216.216,0,0,0-.152.266h0l.551,1.862a.216.216,0,0,0,.266.152.212.212,0,0,0,.152-.247h0l.741-.057v.266a.491.491,0,0,0,.494.494h1.235a.491.491,0,0,0,.494-.494h0V130l1.881-.133v.038a.217.217,0,1,0,.418-.114h0Zm-1.5,4.617a.163.163,0,0,1-.152.152h-1.235a.163.163,0,0,1-.152-.152h0v-.3l1.52-.114v.418Z" fill="#858990"/><path d="M254.429,195.358H39.235a.114.114,0,1,1,0-.228H254.448a.1.1,0,0,1,.114.114A.126.126,0,0,1,254.429,195.358Z" fill="#b2b6bb"/><path d="M55.29,162.165l-1.083,26.752" fill="none" stroke="#21252b" stroke-linecap="round" stroke-width="0.14"/><path d="M47.424,173.793l4.807,5.643" fill="none" stroke="#21252b" stroke-linecap="round" stroke-width="0.14"/><path d="M58.615,180.5l-4.332,6.574" fill="none" stroke="#21252b" stroke-linecap="round" stroke-width="0.14"/><path d="M60.724,169.461l-5.966,6.821" fill="none" stroke="#21252b" stroke-linecap="round" stroke-width="0.14"/><path d="M60.321,173.123c1.414-1.662,1.842-3.622.955-4.376s-2.753-.019-4.167,1.643-1.842,3.622-.955,4.376S58.907,174.786,60.321,173.123Z" fill="#fc904d"/><path d="M61.332,168.815l-5.206,5.928c.019,0,.019.019.038.019.893.76,2.755.019,4.161-1.634C61.712,171.513,62.149,169.613,61.332,168.815Z" fill="rgba(0,0,0,0.29)"/><path d="M50.3,177.121c.687-.568.377-2.078-.693-3.372s-2.495-1.882-3.182-1.313-.377,2.078.693,3.372S49.612,177.69,50.3,177.121Z" fill="#fc4d90"/><path d="M46.379,172.482l3.933,4.617-.019.019c-.684.57-2.109-.019-3.192-1.311C46.075,174.553,45.752,173.071,46.379,172.482Z" fill="rgba(0,0,0,0.29)"/><path d="M48.146,181.45l5.073,3.952" fill="none" stroke="#21252b" stroke-linecap="round" stroke-width="0.14"/><path d="M51.632,184.122c.557-.7-.054-2.111-1.365-3.16s-2.826-1.334-3.383-.638.054,2.111,1.365,3.16S51.075,184.819,51.632,184.122Z" fill="#fc4d90"/><path d="M46.854,180.386l4.788,3.724-.019.019c-.551.7-2.071.418-3.382-.627C46.968,182.476,46.36,181.089,46.854,180.386Z" fill="rgba(0,0,0,0.29)"/><path d="M57.272,164.177c.1-2.18-.747-3.99-1.89-4.042s-2.149,1.674-2.248,3.854.747,3.99,1.89,4.042S57.173,166.357,57.272,164.177Z" fill="#fc4d90"/><path d="M53.143,164.008c.1-2.166,1.1-3.895,2.242-3.838h0l-.361,7.885C53.884,167.979,53.048,166.174,53.143,164.008Z" fill="rgba(0,0,0,0.29)"/><path d="M59.076,182.982c.95-1.485,1.053-3.115.231-3.641s-2.259.252-3.208,1.737-1.053,3.115-.231,3.641S58.127,184.467,59.076,182.982Z" fill="#fc904d"/><path d="M56.107,181.07c-.931,1.444-1.045,3.04-.285,3.591h0l3.477-5.32-.209-.1C58.273,178.942,56.981,179.7,56.107,181.07Z" fill="rgba(0,0,0,0.29)"/><path d="M53.732,188.594l-2.964-18.468" fill="none" stroke="#21252b" stroke-linecap="round" stroke-width="0.14"/><path d="M51.049,172.711c1.015-.162,1.587-1.865,1.277-3.8s-1.385-3.376-2.4-3.214-1.587,1.865-1.277,3.8S50.033,172.874,51.049,172.711Z" fill="#fc904d"/><path d="M48.64,169.5c-.3-1.938.266-3.648,1.273-3.819h0l1.121,7.03C50.027,172.9,48.944,171.456,48.64,169.5Z" fill="rgba(0,0,0,0.29)"/><path d="M52.421,195.13h3.553a1.192,1.192,0,0,0,1.2-1.2h0v-4.712H51.2v4.712A1.221,1.221,0,0,0,52.421,195.13Z" fill="#868a91"/><path d="M57.323,188.594H51.091a.323.323,0,0,0,0,.646h6.232a.32.32,0,0,0,.323-.323A.347.347,0,0,0,57.323,188.594Z" fill="#868a91"/><path d="M57.19,189.221H51.756a.323.323,0,0,1,0-.646h-.665a.323.323,0,0,0,0,.646h.133v4.693a1.192,1.192,0,0,0,1.2,1.2h1.938a1.752,1.752,0,0,1-1.729-1.425h0l-.855-4.389H57.19Z" fill="#61656d"/><path d="M159.125,83.03a.336.336,0,0,0-.1.456h0l1.463,2.508-.133-.114a.519.519,0,0,0-.779.684h0l.3.38-.114-.133a.489.489,0,0,0-.7-.038.5.5,0,0,0-.019.684h0l.285.3-.228-.228a.425.425,0,0,0-.608-.019.434.434,0,0,0-.076.551h0l1.368,2.47a5.14,5.14,0,0,0,1.482,1.653h0l1.159,2.3,3.116-1.881-1.425-2.071-1.159-2.793a3.62,3.62,0,0,0-.532-1.045h0L159.6,83.106A.307.307,0,0,0,159.125,83.03Z" fill="#966363"/><path d="M159.562,89.072a.466.466,0,0,1-.3-.114h0l-.646-.589-.171-.323.988.722a.2.2,0,0,0,.247.019.192.192,0,0,0,.076-.133.2.2,0,0,0-.038-.152h0l-.76-.988.1-.076,1.14.95a.208.208,0,0,0,.285.019.234.234,0,0,0,.057-.323h0l-.8-1.216.114-.076.893,1.14a.019.019,0,0,0,.019.019h0l.1.114a.249.249,0,0,0,.361.057h0l.19-.133-.152.247-.133.19a.579.579,0,0,1-.3-.057.485.485,0,0,1-.8.19h0l-.038-.038a.21.21,0,0,1,0,.152.494.494,0,0,1-.171.3A.292.292,0,0,1,159.562,89.072Z" fill="rgba(0,0,0,0.15)"/><path d="M161.633,88.217l-.8.057a1.1,1.1,0,0,1-1.121-.893h0v-.019a.193.193,0,0,1,.171-.209h0l2.413-.418" fill="#966363"/><path d="M162.317,86.83l-2.413.418c-.038,0-.076.057-.076.1a1.009,1.009,0,0,0,1.045.8h0l.722-.057a1.578,1.578,0,0,0-.57,1.463" fill="none" stroke="#000" stroke-width="0.25"/><path d="M160.873,86.963l-.437-.931.1-.057.608.931Z" fill="rgba(0,0,0,0.15)"/><path d="M165.205,91.789l-3,2.166-.589-1.083,2.907-1.957Z" fill="#fff"/><path d="M222.68,103l.494-1.767a6.519,6.519,0,0,1,.988-2.033h0l.855-1.159a.1.1,0,0,1,.152-.019.852.852,0,0,1,.247,1.026h0l-.665,1.444,3.591-3a.349.349,0,0,1,.475.019.327.327,0,0,1,0,.456h0l-1.748,2.071,2.565-2.394a.333.333,0,0,1,.475,0,.361.361,0,0,1,.019.513h0l-2.3,2.6,2.09-1.881a.333.333,0,0,1,.475.019.355.355,0,0,1,0,.494h0l-1.881,2.033,1.729-1.311a.293.293,0,0,1,.4.019.3.3,0,0,1,0,.418h0l-2.147,2.28a11.648,11.648,0,0,1-2.622,2.09h0l-.209.114-3.819,3.363-2.565-2.926Z" fill="#966363"/><path d="M187.492,192.831l-9.766.247,3.9-2.774a2.459,2.459,0,0,0,1.045-1.957h0l.171-3.1,5.3.019Z" fill="#966363"/><path d="M186.409,189.259V189.2a.619.619,0,0,0-.532-.684h0l-3.173-.456.038-.608h5.263l-.475,5.168-4.256-.475,1.406-.551A2.83,2.83,0,0,0,186.409,189.259Z" fill="rgba(0,0,0,0.15)"/><path d="M205.067,192.641h-4.389l-.817-7.429,5.187.019Z" fill="#966363"/><path d="M203.965,191.387l-.114-2.28a.647.647,0,0,0-.532-.589h0l-3.154-.475-.076-.627,4.94.019.019,5.263Z" fill="rgba(0,0,0,0.15)"/><path d="M204.383,129.295l.969,58.14h-5.7l-4.959-49.514a.636.636,0,0,0-.627-.57.605.605,0,0,0-.608.57h0l-5.282,49.514h-5.7l1.311-58.14Z" fill="#023859"/><path d="M204.383,129.295l.969,58.14h-5.7l-4.959-49.514a.636.636,0,0,0-.627-.57.605.605,0,0,0-.608.57h0l-5.282,49.514h-5.7l1.311-58.14Z" fill="rgba(255,255,255,0.2)"/><path d="M205.5,187.435h-6.08l-.114-1.235h6.175Z" fill="#023859"/><path d="M205.5,187.435h-2.546L202.9,186.2h2.584Z" fill="rgba(0,0,0,0.15)"/><path d="M184.756,186.751l5.624-46.759a3,3,0,0,1,2.964-2.641h.7a.605.605,0,0,0-.608.57h0l-5.244,49.248Z" fill="rgba(0,0,0,0.15)"/><path d="M188.309,187.435h-6.061l.1-1.235h6.1Z" fill="#023859"/><path d="M188.309,187.435H184.7l.133-1.235h3.61Z" fill="rgba(0,0,0,0.15)"/><path d="M204.383,129.295l.988,56.867-2.451.019-1.178-59.47Z" fill="rgba(0,0,0,0.15)"/><path d="M190.323,88.768a1.883,1.883,0,0,1,.152-3.762c.057,0,.209-.038.19.019C190.247,86.659,190.741,88.768,190.323,88.768Z" fill="#21252b"/><path d="M198.721,96.235c0,.1-2.356,5.263-4.085,5.339-1.5.076-2.451-4.788-2.432-4.883h0l.114-2.527V92.853c-.076-.3-.437-.589-.437-.988-.114-1.843-.323-3.515-.323-3.515s6.023-4.028,6.4.665h0l.152.684Z" fill="#966363"/><path d="M190.646,82.84S188.5,93.917,193.61,94.449c4.427.456,4.712-6.441,4.712-6.441h0l-.342-4.446-3.439-1.254Z" fill="#966363"/><path d="M192.109,85.481a2.821,2.821,0,0,1,2.28-1.235,1.8,1.8,0,0,1,1.767,2.033h0l-.019.266a.464.464,0,0,0,.418.494.851.851,0,0,1,.836.874h0l-.019.779a.17.17,0,0,0,.171.171s.228.038.266-.152h0l.114-.836-.8-4.712-3.914-1.026-1.634,1.387Z" fill="#21252b"/><path d="M198.113,89.718a.781.781,0,0,1-.551-.418h0l.608,1.045Z" fill="rgba(0,0,0,0.15)"/><path d="M196.517,93.385a3.345,3.345,0,0,1-2.128,1.216,3.56,3.56,0,0,1-2.109.646h0l.057-1.254.171.095a3.123,3.123,0,0,0,3.857-.836c.019-.038.1-.038.133-.019A.152.152,0,0,1,196.517,93.385Z" fill="rgba(0,0,0,0.15)"/><path d="M192.584,91.485l2.033-.475a1.072,1.072,0,0,1-2.033.475Z" fill="#fff"/><path d="M194.389,88.863a.418.418,0,1,0-.418-.418A.417.417,0,0,0,194.389,88.863Z" fill="#21252b"/><path d="M194.2,88.407a.076.076,0,1,0-.076-.076A.076.076,0,0,0,194.2,88.407Z" fill="#fff"/><path d="M191.14,88.977a.418.418,0,1,0-.418-.418A.417.417,0,0,0,191.14,88.977Z" fill="#21252b"/><path d="M190.969,88.5a.076.076,0,1,0-.076-.076A.076.076,0,0,0,190.969,88.5Z" fill="#fff"/><path d="M192.622,90.858l.532.019a.124.124,0,1,0,.019-.247h0l-.532-.019c-.133-.019-.247-.133-.228-.247.019-.133.133-.247.247-.228a.163.163,0,0,0,.133-.114c.019-.057-.057-.114-.114-.133a.5.5,0,0,0-.513.456A.476.476,0,0,0,192.622,90.858Z" fill="rgba(0,0,0,0.29)"/><path d="M189.373,88.141l.019.456a1.606,1.606,0,1,0,3.211-.1h0l-.019-.456a.5.5,0,0,0-.133-.361h0l.627-.019a.487.487,0,0,0-.114.361h0l.019.456a1.606,1.606,0,1,0,3.211-.1h0l-.019-.456a.592.592,0,0,0-.608-.57h0l-2.014.057h-.019l-1.558.038h-.247l-1.786.057A.623.623,0,0,0,189.373,88.141Zm4.142-.475,2.033-.057a.357.357,0,0,1,.361.342h0l.019.456a1.369,1.369,0,1,1-2.736.076h0l-.019-.456A.4.4,0,0,1,193.515,87.666Zm-3.914.475a.357.357,0,0,1,.342-.361h0l1.786-.057h.247a.357.357,0,0,1,.361.342h0l.019.456a1.369,1.369,0,0,1-2.736.076h0Z" fill="#21252b"/><path d="M174.211,194.446v-.209a1.253,1.253,0,0,1,1.254-1.254h1.748a1.394,1.394,0,0,0,.988-.4h0l4.465-4.237,1.387,1.824a1.19,1.19,0,0,0,1.862.038,1.233,1.233,0,0,1,.912-.437h.931v4.6Z" fill="#3f4249"/><path d="M174.211,194.446v.684H187.8v-.76Z"/><path d="M183.559,189.487l-3.021,2.451a.842.842,0,0,1-1.121-.057h0l-.228-.228,3.477-3.306a.451.451,0,0,1,.494.171h0l.361.513a.41.41,0,0,1,.057.418h0Z"/><path d="M201.248,189.278h-.361a.661.661,0,0,0-.665.589h0l-.076,1.368a3.047,3.047,0,0,1-.323,1.216h0l-.133.247a3.333,3.333,0,0,0-.361,1.539h0v.247h6.954a3.4,3.4,0,0,0-.589-1.9,3.072,3.072,0,0,1-.513-1.406h0l-.152-1.368a.675.675,0,0,0-.665-.532h-.247" fill="#3f4249"/><path d="M206.245,194.465H199.31v.665h6.935Z"/><path d="M202.16,188.651h1.026a.859.859,0,0,1,.855.969h0l-.228,1.862a1.164,1.164,0,0,1-1.14,1.007,1.137,1.137,0,0,1-1.14-1.026h0l-.209-1.862A.83.83,0,0,1,202.16,188.651Z"/><path d="M200.83,189.886h3.686" fill="none" stroke="#fff" stroke-linecap="round" stroke-width="0.25"/><path d="M200.944,190.76H204.4" fill="none" stroke="#fff" stroke-linecap="round" stroke-width="0.25"/><path d="M201.039,191.615h3.268" fill="none" stroke="#fff" stroke-linecap="round" stroke-width="0.25"/><path d="M180.1,190.361l1.349,1.273" fill="none" stroke="#fff" stroke-linecap="round" stroke-width="0.25"/><path d="M180.823,189.7l1.387,1.311" fill="none" stroke="#fff" stroke-linecap="round" stroke-width="0.25"/><path d="M181.564,189.069l1.368,1.292" fill="none" stroke="#fff" stroke-linecap="round" stroke-width="0.25"/><path d="M184.129,130.359h17.765" fill="none" stroke="#000" stroke-linecap="round" stroke-width="0.283"/><path d="M224.314,106.571l-11.267,10.735a2.4,2.4,0,0,1-3.724-.513h0l-3.971-7.486-.646,19.513a.487.487,0,0,1-.494.475H183.768a.243.243,0,0,1-.228-.209h0l-1.14-23.959-9.044,4.351a2.36,2.36,0,0,1-3.1-.988h0l-8.132-14.611,3.135-2.166,7.961,9.861,8.626-4.408a5.9,5.9,0,0,1,2.185-.627h0l8.227-.779,2.375,4.522,3.971-4.5,7.087,1.881a5.193,5.193,0,0,1,3.344,2.736h0l4.465,9.025,8.056-5.757Z" fill="#21252b"/><path d="M224.751,100.453a2.014,2.014,0,0,1,.285,2.432" fill="none" stroke="#000" stroke-width="0.267"/><path d="M199.31,84.93a2.468,2.468,0,0,0-1.824-2.318,2.821,2.821,0,0,0-1.33.057.3.3,0,0,1-.38-.209,1.831,1.831,0,0,0-1.767-1.387,1.774,1.774,0,0,0-1.463.741.293.293,0,0,1-.437.057,2.462,2.462,0,0,0-2.812.019,2.594,2.594,0,0,0-.893,3.363,2.135,2.135,0,0,0,3.344.684,2.378,2.378,0,0,0,.7-1.615,3.043,3.043,0,0,0-.114-1.254h.532a12.4,12.4,0,0,1,2.546-.019c-.019.019-.038.019-.057.038h0l1.653.551s.513,4.37.779,4.332C198.949,87.723,199.462,86.013,199.31,84.93Z" fill="#21252b"/><path d="M190.855,86.678l.513-.114c.038-.019.1-.076.076-.133a.108.108,0,0,0-.133-.076h0l-.513.114c-.057.019-.133.019-.19.038a1.962,1.962,0,0,1-.665-.1.108.108,0,1,0-.057.209,3.107,3.107,0,0,0,.722.1A.963.963,0,0,1,190.855,86.678Z" fill="#966363"/><path d="M194.37,100.434l-1.577-1.425,1.995-.323,1.9.475-1.729,1.292A.436.436,0,0,1,194.37,100.434Z" fill="#fff"/><path d="M194.788,98.686l3.04.76,1.425-3.5-.076-.969a.266.266,0,0,0-.266-.228h-.323l.1.988Z" fill="#fff"/><path d="M192.261,95.76l.038-.817h-.247a.3.3,0,0,0-.3.285h0l-.038,3.952,3.078-.513Z" fill="#fff"/><path d="M197.353,99.389l-2.584-.646-2.736.456" fill="none" stroke="#000" stroke-width="0.141"/><path d="M222.528,103.113l2.489,2.546-.817.8-2.546-2.7Z" fill="#fff"/><path d="M197.923,87.495a.777.777,0,0,1,1.045-.57c.988.285.817,2.28-.494,2.736-.817.171-.7-.323-.646-.988Z" fill="#966363"/><path d="M199.082,87.476a.545.545,0,0,0-.475-.057.6.6,0,0,0-.323.323,1.018,1.018,0,0,0-.076.589h0V88.5a.1.1,0,1,0,.19-.038h0v-.171a1.288,1.288,0,0,1,.057-.494.5.5,0,0,1,.209-.228.45.45,0,0,1,.3.038.117.117,0,0,0,.133-.038C199.139,87.571,199.12,87.514,199.082,87.476Z" fill="rgba(0,0,0,0.29)"/><path d="M213.5,109.421l-.836-1.691-.608,2.052a.287.287,0,0,0,.437.323h0Z" fill="rgba(0,0,0,0.4)"/><path d="M173.223,101.574l.475.551a.381.381,0,0,0,.57,0h0l1.862-2.033Z" fill="rgba(0,0,0,0.4)"/><path d="M182.419,105.127l.646-.3a.112.112,0,0,1,.152.152h0l-.741,1.634Z"/><path d="M183.16,121.011h21.831l-.247,7.79a.527.527,0,0,1-.532.513H183.768a.243.243,0,0,1-.228-.209h0Z" fill="#858990"/><path d="M182.7,111.4h22.591l-.3,9.614H183.16Z" fill="#3f4249"/><path d="M205.371,109.307l-.437-1.007a.527.527,0,0,0-1.007.171h0l-2.033,20.843h2.3a.548.548,0,0,0,.551-.532h0Z" fill="rgba(0,0,0,0.4)"/><path d="M73.283,166.022,65.3,132.753a1.58,1.58,0,0,1,1.558-1.957H64.695a1.606,1.606,0,0,0-1.558,1.957h0l7.98,33.269,25.916.057Z" fill="#858990"/><path d="M78.356,163.267l-6.1-27.132a.223.223,0,0,0-.209-.171h-.361a.2.2,0,0,1,.171.152h0l6.1,27.132a.217.217,0,0,1-.209.266h-.266l.646-.019A.184.184,0,0,0,78.356,163.267Z" fill="#858990"/><path d="M90.345,131.993a1.6,1.6,0,0,0-1.539-1.216H66.861a1.606,1.606,0,0,0-1.558,1.957h0L73.283,166l25.46.057Zm-12.2,31.54-.646.019a.223.223,0,0,1-.209-.171h0l-6.1-27.151a.2.2,0,0,1,.209-.247h.665a.223.223,0,0,1,.209.171h0l6.1,27.132A.234.234,0,0,1,78.147,163.533Z" fill="#b1b5ba"/><path d="M90.4,131.461a1.254,1.254,0,0,0,.893.114c1.406-.228,2.47-.418,2.584-1.843.152-2.242-.323-7.2-2.109-10.032a4.393,4.393,0,0,0-1.406.912s-1.805-.551-1.843-.57C88.521,120.023,87.932,129.846,90.4,131.461Z" fill="#21252b"/><path d="M85.975,130.017l-1.007-11.951c-.608-.1-1.577.7-1.862,1.026-2.28,2.6-2.831,7.98-2.508,11.571.114,1.387,1.007,1.577,2.375,1.843s2.964.4,3.553-.285C86.811,131.86,85.975,130.017,85.975,130.017Z" fill="#21252b"/><path d="M120.327,154.85a3.1,3.1,0,0,0-3.04-2.66h-1.653l-.646.152v.1l-14.06,1.786a4.342,4.342,0,0,0-3.667,3.23h0l-9.8,37.677h2.356l9.652-37.107a2.073,2.073,0,0,1,1.748-1.539h0l15.9-2.033a.849.849,0,0,1,.95.7h0l6.08,39.938h2.318Z" fill="#b1b5ba"/><path d="M88.331,195.13H85.975l9.785-37.677a4.345,4.345,0,0,1,3.667-3.23h0l15.9-2.033a3.14,3.14,0,0,1,3.5,2.641h0l6.137,40.3h-2.318l-6.08-39.938a.838.838,0,0,0-.95-.7h0l-15.9,2.033a2.093,2.093,0,0,0-1.748,1.539h0Z" fill="#858990"/><path d="M126.54,168.321H92.093a1.14,1.14,0,0,1,0-2.28H126.54a1.143,1.143,0,0,1,1.14,1.14A1.12,1.12,0,0,1,126.54,168.321Z" fill="#b1b5ba"/><path d="M99.275,168.321H69.863a1.14,1.14,0,0,1,0-2.28H99.256a1.143,1.143,0,0,1,1.14,1.14A1.115,1.115,0,0,1,99.275,168.321Z" fill="#858990"/><path d="M103.7,166.782a1.152,1.152,0,0,1-1.083,1.539H69.863a1.022,1.022,0,0,1-.418-.076h0l.57-2.223H102.6A1.155,1.155,0,0,1,103.7,166.782Z" fill="#858990"/><path d="M137.579,195.13h6.954c.114-.209.437-.836.038-.969h0l-4.731-2.033a3.522,3.522,0,0,1-1.9-1.1,1.988,1.988,0,0,1-.247-.437h0l-3.686-8.36-4.541,2.185,3.857,6.688a3.214,3.214,0,0,1,.437,1.729h0l.019.95a1.366,1.366,0,0,0,1.311,1.311h.019Z" fill="#966363"/><path d="M144.666,194.826c-.057.133-.114.247-.152.323H137.56l-2.489-.038h-.019a1.352,1.352,0,0,1-1.311-1.311h0l-.019-.95a3.345,3.345,0,0,0-.437-1.729h0l-1.387-2.394.076-.665,1.786,1.653,1.653,3.1s1.273,1.729,5.073,1.881l3.8.133h.38Z" fill="rgba(0,0,0,0.15)"/><path d="M136.762,188.461l-4.047,1.672-2.565-4.18c-6.213-9.215-7.714-12.179-10.184-19.874H97.793a5.669,5.669,0,0,1-5.662-5.567h0l-.057-3.534h28.8a4.533,4.533,0,0,1,4.18,2.793h0Z" fill="#3f4249"/><path d="M129.751,182.286c-4.9-8.436-6.175-15.352-8.493-22.325a3.869,3.869,0,0,0-3.724-3H105.64c-2.926-.076-4.56,4.427-6.992,2.812h0l-5.966-2.812h-.589l.057,3.534a5.657,5.657,0,0,0,5.662,5.567h22.173c2.66,7.942,3.99,10.716,10.184,19.874h0l2.565,4.161,1.045-.437C133.76,189.7,130.644,183.806,129.751,182.286Z" fill="rgba(0,0,0,0.2)"/><path d="M139.289,191.938l-1.235.19a8.169,8.169,0,0,1-4.56-.608h0l.266,2.812a.907.907,0,0,0,.912.8h10.165a.427.427,0,0,0,.133-.836h0Z" fill="#023859"/><path d="M145.2,194.94l-8.531-.513c-.665-.038-1.216-.931-1.425-1.577h0l-.247-.817a8.17,8.17,0,0,1-1.5-.494h0l.266,2.812a.907.907,0,0,0,.912.8h10.165A.439.439,0,0,0,145.2,194.94Z" fill="rgba(0,0,0,0.2)"/><path d="M128.668,195.13h6.954c.114-.209.437-.836.038-.969h0l-4.731-2.033a3.522,3.522,0,0,1-1.9-1.1,1.987,1.987,0,0,1-.247-.437h0l-3.686-8.36-4.541,2.185,3.857,6.688a3.214,3.214,0,0,1,.437,1.729h0l.019.95a1.366,1.366,0,0,0,1.311,1.311h.019Z" fill="#966363"/><path d="M135.755,194.826c-.057.133-.114.247-.152.323h-6.954l-2.489-.038h-.019a1.352,1.352,0,0,1-1.311-1.311h0l-.019-.95a3.345,3.345,0,0,0-.437-1.729h0l-1.387-2.394.076-.665,2.109,1.52,1.33,3.23s1.273,1.729,5.073,1.881l3.8.133h.38Z" fill="rgba(0,0,0,0.15)"/><path d="M121.885,120.669l2.033-.722a1.526,1.526,0,0,0,.551-.285h0l1.976-1.425a.115.115,0,0,0,.019-.152.967.967,0,0,0-1.14-.247h0l-.779.342a.656.656,0,0,1-.912-.57h0l-.114-2.356a.6.6,0,0,1,.076-.3h0l1.235-2.033a.38.38,0,0,0-.152-.532.375.375,0,0,0-.437.076c-.532.551-2,2.09-2,2.09h0l-.19,1.881,1.463-3.211L122,114.38a3.771,3.771,0,0,0-1.235,1.691h0l-1.007,2.869-5.282,4.674-2.071,7.3Z" fill="#966363"/><path d="M122.265,114.646v-.019l.8-1.083.4-.3-1.045,1.482-.38,1.083-.152-.057Z" fill="rgba(0,0,0,0.15)"/><path d="M122.094,115.672l.323-.95,1.045-1.482-1.52,1.159a3.771,3.771,0,0,0-1.235,1.691A2.322,2.322,0,0,1,122.094,115.672Z" fill="rgba(0,0,0,0.15)"/><path d="M122.018,114.361l-.551.8-.209.817h-.152l.209-.969a3.23,3.23,0,0,1,.4-.418h0Z" fill="rgba(0,0,0,0.15)"/><path d="M94.81,131.1l13.623-2.014,9.69-8.721.513,8.455-8.322,4.541a2.6,2.6,0,0,1-.722.285h0L95.8,137.18" fill="#023859"/><path d="M97.052,130.8l-7.809,8.588L79.952,133.8l4.408-1.33c.038-.019.076-.019.114-.038a1.185,1.185,0,0,0,.665-1.254h0l-.494-4.484,4.617-2.185,1.064,4.56.171.741.247,1.026a1.022,1.022,0,0,0,1.178.722h0Z" fill="#966363"/><path d="M127.851,188.461l-4.047,1.672-2.565-4.161c-6.213-9.215-7.714-12.179-10.184-19.874H88.882a5.669,5.669,0,0,1-5.662-5.567h0L83.163,157h28.8a4.533,4.533,0,0,1,4.18,2.793h0Z" fill="#3f4249"/><path d="M121.239,182.229c-4.9-8.436-5.092-10.678-7.3-17.689a3,3,0,0,0-2.983-2.356h0l-12.54.057c-2.926-.076-8,.228-10.412-1.406h0l-4.218-3.857H83.2l.057,3.534a5.657,5.657,0,0,0,5.662,5.567h22.173c2.66,7.942,3.99,10.716,10.184,19.874h0l2.565,4.161,1.368-.57C125.191,189.563,122.113,183.749,121.239,182.229Z" fill="rgba(0,0,0,0.2)"/><path d="M77.634,134.558l5.187-1.672,1.121.836a6.027,6.027,0,0,0,9.006-2.071h0l.152-.3,8.151-1.216v5.263l-5.434,1.786-.494-.893,1.558,2.66a4.966,4.966,0,0,1,.228,4.617h0l-.475,1.026a1.518,1.518,0,0,0-.152.76h0l.152,3.23a9,9,0,0,0,1.577,4.674h0l2.527,3.705h-.95a19.389,19.389,0,0,0-10.051,2.812h0l-4.712,2.85a2.012,2.012,0,0,1-3-2.185h0l.19-.817a23.293,23.293,0,0,0,.266-9.31h0l-1.862-8.759-5.434.19-.342-1.254A4.627,4.627,0,0,1,77.634,134.558Z" fill="#023859"/><path d="M90.231,156.142l.076-.076a.5.5,0,0,1,0-.7h0l-.076-.076a.5.5,0,0,1-.7,0h0l-.076.076a.5.5,0,0,1,0,.7h0l.076.076A.472.472,0,0,1,90.231,156.142Z" fill="#4d61fc"/><path d="M80.959,140.41a.286.286,0,0,1,.342.228h0l1.33,5.168a3.564,3.564,0,0,0,1.33,2.109,3.947,3.947,0,0,0,3.306.171.32.32,0,0,1,.437.361h0l-.513,2.166c-1.539,4.256-1.1,9.006.817,10.222h0l-2.945,1.786a2.012,2.012,0,0,1-3-2.185h0l.19-.817a23.293,23.293,0,0,0,.266-9.31h0l-1.786-9.538A.28.28,0,0,1,80.959,140.41Z" fill="rgba(0,0,0,0.29)"/><path d="M98.173,156.142l.076-.076a.5.5,0,0,1,0-.7h0l-.076-.076a.5.5,0,0,1-.7,0h0l-.076.076a.5.5,0,0,1,0,.7h0l.076.076A.472.472,0,0,1,98.173,156.142Z" fill="#4d61fc"/><path d="M96.615,144.59a2.678,2.678,0,0,1-2.356,1.33h0l2.261.475-.057-1.045A1.723,1.723,0,0,1,96.615,144.59Z" fill="rgba(0,0,0,0.29)"/><path d="M118.5,126.5l-8.892,5.757L95.342,135.6a.382.382,0,0,0-.19.589h0l.665,1.007,13.927-3.572a2.216,2.216,0,0,0,.494-.19h0l8.436-4.6Z" fill="rgba(0,0,0,0.29)"/><path d="M104.12,155.477l-2.033-1.8a1.149,1.149,0,0,0-.76-.323h0l-3.287.285-5.434-.38-1.9,2.546,4.731.3.456.171a2.909,2.909,0,0,0,2.356-.076h.019l.627-.3a.638.638,0,0,1,.494-.019h0l1.615.665a.239.239,0,0,0,.247-.038.269.269,0,0,0,0-.418h0l-1.2-.893,1.786,1.292a.3.3,0,0,0,.285.038.289.289,0,0,0,.1-.475h0l-1.273-1.254,1.672,1.634a.292.292,0,0,0,.323.057.315.315,0,0,0,.133-.494h0l-1.254-1.482,1.919,1.406a.306.306,0,0,0,.437-.057A.28.28,0,0,0,104.12,155.477Z" fill="#966363"/><path d="M101.232,156.18c-.019,0-.019,0-.038-.019h0l-1.1-.817c-.019-.019-.038-.057-.019-.076s.057-.038.076-.019h0l1.1.817c.019.019.038.057.019.076Z" fill="rgba(0,0,0,0.15)"/><path d="M102.163,156.142c-.019,0-.038,0-.038-.019h0l-1.2-1.178a.054.054,0,1,1,.076-.076h0l1.2,1.178a.058.058,0,0,1,0,.076C102.2,156.142,102.182,156.142,102.163,156.142Z" fill="rgba(0,0,0,0.15)"/><path d="M99.712,155.705c.361.19.988.494,1.2.627.3.171.4-.057.4-.057a.279.279,0,0,1-.1.266.291.291,0,0,1-.247.038h0l-1.615-.665a.638.638,0,0,0-.494.019h0l.323-.19A.536.536,0,0,1,99.712,155.705Z" fill="rgba(0,0,0,0.15)"/><path d="M75.012,141.113l3.572,13a2.565,2.565,0,0,0,1.805,1.767h0l9.5,2.546,4.237-5.168-10.887-1.6L80.617,140.6Z" fill="#023859"/><path d="M86.2,152.1l.038-.171,11.134,1.615-.019.076Z" fill="rgba(0,0,0,0.29)"/><path d="M92.435,155.306l3.173.361a1.563,1.563,0,0,1,.7.247,2.936,2.936,0,0,0,1.615.437,3.1,3.1,0,0,1-2.489-.228h0l-3.629-.209Z" fill="rgba(0,0,0,0.15)"/><path d="M130.378,191.938l-1.235.19a8.169,8.169,0,0,1-4.56-.608h0l.266,2.812a.907.907,0,0,0,.912.8h10.165a.427.427,0,0,0,.133-.836h0Z" fill="#023859"/><path d="M136.306,194.94l-8.531-.513c-.665-.038-1.216-.931-1.425-1.577h0l-.247-.817a8.17,8.17,0,0,1-1.5-.494h0l.266,2.812a.907.907,0,0,0,.912.8h10.165A.47.47,0,0,0,136.306,194.94Z" fill="rgba(0,0,0,0.2)"/><path d="M117.04,123.044a.266.266,0,1,0-.266-.266A.266.266,0,0,0,117.04,123.044Z" fill="#f4f4f4"/><path d="M114.4,129.542a.266.266,0,1,0-.266-.266A.266.266,0,0,0,114.4,129.542Z" fill="#f4f4f4"/><path d="M107.16,131.328a.266.266,0,1,0-.266-.266A.266.266,0,0,0,107.16,131.328Z" fill="#f4f4f4"/><path d="M100.966,135.337a.266.266,0,1,0-.266-.266A.266.266,0,0,0,100.966,135.337Z" fill="#f4f4f4"/><path d="M93.252,137.408a.266.266,0,1,0-.266-.266A.266.266,0,0,0,93.252,137.408Z" fill="#f4f4f4"/><path d="M95.7,144.02a.266.266,0,1,0-.266-.266A.266.266,0,0,0,95.7,144.02Z" fill="#f4f4f4"/><path d="M88.255,142.139a.266.266,0,1,0-.266-.266A.266.266,0,0,0,88.255,142.139Z" fill="#f4f4f4"/><path d="M89.414,153.52a.266.266,0,1,0-.266-.266A.266.266,0,0,0,89.414,153.52Z" fill="#f4f4f4"/><path d="M93.8,157.225a.266.266,0,1,0-.266-.266A.266.266,0,0,0,93.8,157.225Z" fill="#f4f4f4"/><path d="M94.525,149.777a.266.266,0,1,0-.266-.266A.266.266,0,0,0,94.525,149.777Z" fill="#f4f4f4"/><path d="M87.7,148.561a.266.266,0,1,0-.266-.266A.266.266,0,0,0,87.7,148.561Z" fill="#f4f4f4"/><path d="M76.494,136.135a.266.266,0,1,0-.266-.266A.266.266,0,0,0,76.494,136.135Z" fill="#f4f4f4"/><path d="M85.006,135.869a.266.266,0,1,0-.266-.266A.266.266,0,0,0,85.006,135.869Z" fill="#f4f4f4"/><path d="M77.729,146.794a.266.266,0,1,0-.266-.266A.266.266,0,0,0,77.729,146.794Z" fill="#f4f4f4"/><path d="M80.655,141.037a.266.266,0,1,0-.266-.266A.266.266,0,0,0,80.655,141.037Z" fill="#f4f4f4"/><path d="M82.707,151.392a.266.266,0,1,0-.266-.266A.266.266,0,0,0,82.707,151.392Z" fill="#f4f4f4"/><path d="M83.543,161.234a.266.266,0,1,0-.266-.266A.266.266,0,0,0,83.543,161.234Z" fill="#f4f4f4"/><path d="M86.469,156.161a.266.266,0,1,0-.266-.266A.266.266,0,0,0,86.469,156.161Z" fill="#f4f4f4"/><path d="M97.052,131.594a.266.266,0,1,0-.266-.266A.266.266,0,0,0,97.052,131.594Z" fill="#f4f4f4"/><path d="M75.848,138.738,79.325,151.6a3.743,3.743,0,0,0,3.23,2.6h0l9.9,1.1-2.565,3.116L80.427,155.9a2.625,2.625,0,0,1-1.843-1.824h0l-3.724-13.6c-.684-2.641.323-5.13,2.793-5.928A3.411,3.411,0,0,0,75.848,138.738Z" fill="rgba(0,0,0,0.29)"/><path d="M73.815,166.649l1.938-7.429h.266l-1.9,7.429Z" fill="#858990"/><path d="M96.52,166.022l.342,2.3h-1.14l-.323-2.3Z" fill="rgba(0,0,0,0.29)"/><path d="M69.065,166.364a1.148,1.148,0,0,1,.817-.342h.152l-.57,2.223" fill="rgba(0,0,0,0.29)"/><path d="M95.57,156.313h11.666a.17.17,0,0,1,.171.171h0v.3a.17.17,0,0,1-.171.171H95.57a.17.17,0,0,1-.171-.171h0v-.3A.159.159,0,0,1,95.57,156.313Z" fill="#21252b"/><path d="M95.57,156.313h11.666a.17.17,0,0,1,.171.171h0v.3a.17.17,0,0,1-.171.171H95.57a.17.17,0,0,1-.171-.171h0v-.3A.159.159,0,0,1,95.57,156.313Z" fill="rgba(0,0,0,0.6)"/><path d="M103.436,156.313h20.349a.17.17,0,0,1,.171.171h0v.3a.17.17,0,0,1-.171.171H103.436a.17.17,0,0,1-.171-.171h0v-.3A.17.17,0,0,1,103.436,156.313Z" fill="#21252b"/><path d="M123.519,156.427h-20.71a.057.057,0,0,1,0-.114h20.71a.05.05,0,0,1,.057.057A.061.061,0,0,1,123.519,156.427Z" fill="rgba(0,0,0,0.6)"/><path d="M103.4,156.313h3.059a.525.525,0,0,0,.494-.4h0l2.565-13.509a.5.5,0,0,0-.494-.589h-3.059a.525.525,0,0,0-.494.4h0L102.9,155.724A.5.5,0,0,0,103.4,156.313Z" fill="#21252b"/><path d="M103.4,156.313h3.059a.525.525,0,0,0,.494-.4h0l2.565-13.509a.5.5,0,0,0-.494-.589h-3.059a.525.525,0,0,0-.494.4h0L102.9,155.724A.5.5,0,0,0,103.4,156.313Z" fill="rgba(0,0,0,0.6)"/><path d="M103.835,156.313h19.684a.525.525,0,0,0,.494-.4h0l2.565-13.509a.5.5,0,0,0-.494-.589H106.4a.525.525,0,0,0-.494.4h0l-2.546,13.509A.476.476,0,0,0,103.835,156.313Z" fill="#21252b"/><path d="M115.064,148.694c-.114.266.019.513.285.513h.038a1.664,1.664,0,0,1-1.235.589c-.589-.019-.855-.494-.589-1.064a1.777,1.777,0,0,1,1.52-1.026.69.69,0,0,1,.684.494A.891.891,0,0,0,115.064,148.694Z" fill="#fff"/><path d="M96.919,154.85a3.1,3.1,0,0,0-3.04-2.66H92.226l-.646.152v.1l-14.06,1.786a4.342,4.342,0,0,0-3.667,3.23h0l-9.8,37.677H66.4l9.652-37.107a2.073,2.073,0,0,1,1.748-1.539h0l15.9-2.033a.849.849,0,0,1,.95.7h0l6.08,39.938h2.318Z" fill="#b1b5ba"/><path d="M64.9,195.13H62.548l9.8-37.677a4.345,4.345,0,0,1,3.667-3.23h0l15.9-2.033a3.14,3.14,0,0,1,3.5,2.641h0l6.137,40.3H99.237l-6.08-39.938a.838.838,0,0,0-.95-.7h0l-15.9,2.033a2.093,2.093,0,0,0-1.748,1.539h0Z" fill="#858990"/><path d="M89.414,129.713l-.266.057a3.835,3.835,0,0,1-4.427-2.945h0l-1.083-5a1.22,1.22,0,0,1,.931-1.444h0l4.674-1.007a1.582,1.582,0,0,1,1.881,1.216h0l1.007,4.655A3.643,3.643,0,0,1,89.414,129.713Z" fill="#966363"/><path d="M88.9,127.091l.171.171a.9.9,0,0,0,1.444-.342h0l.1-.266c.019-.057-.019-.114-.076-.1h0l-1.6.418A.066.066,0,0,0,88.9,127.091Z" fill="#fff"/><path d="M87.97,125.02a.4.4,0,1,0-.4-.4A.4.4,0,0,0,87.97,125.02Z" fill="#21252b"/><path d="M88.16,124.83a.076.076,0,1,0-.076-.076A.076.076,0,0,0,88.16,124.83Z" fill="#fff"/><path d="M90.991,124.545a.4.4,0,1,0-.4-.4A.4.4,0,0,0,90.991,124.545Z" fill="#21252b"/><path d="M91.2,124.336a.076.076,0,1,0-.076-.076A.076.076,0,0,0,91.2,124.336Z" fill="#fff"/><path d="M90,126.1l-.513.133c-.057.019-.133-.019-.133-.076-.019-.057.019-.133.076-.133h0l.513-.133a.235.235,0,1,0-.114-.456c-.057.019-.133-.019-.133-.076-.019-.057.019-.133.076-.133a.478.478,0,0,1,.57.342A.448.448,0,0,1,90,126.1Z" fill="rgba(0,0,0,0.29)"/><path d="M92.492,121.676H92.7a5.634,5.634,0,0,0-9.614-2.565,11.658,11.658,0,0,0-1.976,4.294c.456.988,1.71,1.767,2.109,2.451.171.3.532-1.121.779-1.311a3.032,3.032,0,0,1,.551.494.217.217,0,0,0,.38-.114,5.856,5.856,0,0,0-.076-1.995h0l-.133-.589c1.273-.418,5.111-1.919,5.966-2.2.209-.076.4.247.456.456h0l.627,2.907.532-1.387Z" fill="#21252b"/><path d="M85.006,126.977a1.99,1.99,0,0,1-2.432-1.007c-.8-1.577,1.2-2.413,1.938-.817h0l.7,1.767Z" fill="#966363"/><path d="M82.859,124.944a.648.648,0,0,1,.475-.266.632.632,0,0,1,.494.228,1.482,1.482,0,0,1,.361.608h0l.057.171c.038.133-.171.228-.228.076l-.057-.19a1.377,1.377,0,0,0-.285-.494.457.457,0,0,0-.323-.152.534.534,0,0,0-.323.19.118.118,0,0,1-.152.019A.146.146,0,0,1,82.859,124.944Z" fill="rgba(0,0,0,0.29)"/><path d="M91.029,122.493a1.565,1.565,0,0,0-1.045.874,1.442,1.442,0,0,0-.969.171,1.625,1.625,0,0,0-1.577-.513,1.585,1.585,0,1,0,1.919,1.159,1.343,1.343,0,0,0-.209-.475,1.332,1.332,0,0,1,.779-.152,1.628,1.628,0,0,0-.019.855,1.585,1.585,0,1,0,3.078-.76A1.637,1.637,0,0,0,91.029,122.493Zm-2.888,3.42a1.38,1.38,0,1,1,1.007-1.672A1.386,1.386,0,0,1,88.141,125.913Zm3.61-.551a1.38,1.38,0,1,1,1.007-1.672A1.368,1.368,0,0,1,91.751,125.362Z" fill="#fff"/><path d="M84.417,126.844a.342.342,0,1,0-.342-.342A.342.342,0,0,0,84.417,126.844Z" fill="#80b9c0"/><path d="M84.588,126.749a.375.375,0,0,1-.456-.266.389.389,0,0,1,0-.209.342.342,0,0,0-.076.3.325.325,0,0,0,.418.247.277.277,0,0,0,.171-.114C84.645,126.749,84.626,126.749,84.588,126.749Z" fill="rgba(0,0,0,0.15)"/><path d="M84.664,127.053l.589-.133-.456,1.463Z" fill="rgba(0,0,0,0.15)"/><path d="M91.124,120.574c-3.211-.76-2.679,4.047-6,3.4-3.116-.608-.3-4.37-.3-4.37h0l2.755-.494,3.705.456Z" fill="#21252b"/><path d="M85.519,124.184a2.114,2.114,0,0,1-.95-.266" fill="none" stroke="#966363" stroke-linecap="round" stroke-width="0.247"/><path d="M90.478,129.694l-.076-.323h-.019a4.217,4.217,0,0,1-1.976.228.116.116,0,1,0-.038.228c.19.019.361.038.532.038a2.942,2.942,0,0,0,.418-.019,1.439,1.439,0,0,0,1.254.247h0Z" fill="rgba(0,0,0,0.15)"/><path d="M84.664,127.053a14.05,14.05,0,0,0,2.242,5.32,10.422,10.422,0,0,1-3.971.133C81.339,132.145,84.664,127.053,84.664,127.053Z" fill="#21252b"/><path d="M89.015,67.146v47.538l-45.239-.817-.038-30.343L61.579,67.146Z" fill="#eaeaea"/><path d="M75.563,68.172l-17.8,45.467h-5.6L70.281,68.172Z" fill="rgba(255,255,255,0.2)"/><path d="M67.735,68.172,49.913,113.639H48.051L66.177,68.172Z" fill="rgba(255,255,255,0.2)"/><path d="M40.964,115.71h49.1V66.12H62.7l-2.223,2.071v45.467H40.926Zm47.025-2.071H62.548V68.172H87.989Z" fill="#fff"/><path d="M59.014,69.5H87.989v-.76H59.85Z" fill="#fff"/><path d="M57.57,70.813H87.989v-.76H58.406Z" fill="#fff"/><path d="M56.126,72.143H87.989v-.76H56.962Z" fill="#fff"/><path d="M54.682,73.473H87.989v-.76H55.518Z" fill="#fff"/><path d="M53.257,74.8H87.989v-.76H54.074Z" fill="#fff"/><path d="M51.794,76.114H87.989v-.76H52.63Z" fill="#fff"/><path d="M87,89.3h.038V68.172h.19V89.3h.038a.26.26,0,0,1,.266.266h0v2.945a.26.26,0,0,1-.266.266H87.02a.26.26,0,0,1-.266-.266h0V89.566A.235.235,0,0,1,87,89.3Z" fill="#fff"/><path d="M87.577,69.489h.4v-.76h-.4Z" fill="#ddd"/><path d="M87.577,70.826h.4v-.76h-.4Z" fill="#ddd"/><path d="M87.577,72.145h.4v-.76h-.4Z" fill="#ddd"/><path d="M87.577,73.464h.4V72.7h-.4Z" fill="#ddd"/><path d="M87.577,74.8h.4v-.76h-.4Z" fill="#ddd"/><path d="M87.577,76.12h.4v-.76h-.4Z" fill="#ddd"/><path d="M60.468,69.81h2.071v-.323H60.468Z" fill="#ddd"/><path d="M60.468,71.147h2.071v-.323H60.468Z" fill="#ddd"/><path d="M60.468,72.466h2.071v-.323H60.468Z" fill="#ddd"/><path d="M60.468,73.785h2.071v-.323H60.468Z" fill="#ddd"/><path d="M60.468,75.122h2.071V74.8H60.468Z" fill="#ddd"/><path d="M60.468,76.441h2.071v-.323H60.468Z" fill="#ddd"/><text transform="translate(170.504 51.927)" fill="rgba(2,115,115,0.28)" font-size="15" font-family="Poppins-Bold, Poppins" font-weight="700"><tspan x="0" y="0">SGS</tspan></text></g></svg>