<svg xmlns="http://www.w3.org/2000/svg" width="54.708" height="60.997" viewBox="0 0 54.708 60.997"><g transform="translate(-3.217)"><path d="M14.759,48.219A21.577,21.577,0,0,1,26.031,9.009h0v1.913a1.53,1.53,0,0,0,2.391,1.261h0l6.865-4.7a1.529,1.529,0,0,0,0-2.523h0L28.422.268a1.527,1.527,0,0,0-2.391,1.261h0V3.476A27.018,27.018,0,0,0,12.68,7.638a.895.895,0,0,0,.957,1.512A25.228,25.228,0,0,1,26.03,5.267h0V7.216a23.368,23.368,0,0,0-12.3,42.467.974.974,0,0,1-1.106,1.6,25.329,25.329,0,0,1-1.773-40.1A.895.895,0,0,0,9.7,9.822a27.12,27.12,0,0,0,1.9,42.927,2.763,2.763,0,0,0,3.164-4.53ZM27.82,2.024l6.142,4.2-6.142,4.2Z" transform="translate(3.157)" fill="#80b9c0"/><path d="M43.223,8.247a2.773,2.773,0,0,0-4.34,2.343,2.743,2.743,0,0,0,1.176,2.187A21.577,21.577,0,0,1,28.788,51.987h0V50.075A1.53,1.53,0,0,0,26.4,48.813h0l-6.865,4.7a1.528,1.528,0,0,0,0,2.523c7.5,5.13,7.084,4.964,7.727,4.964a1.531,1.531,0,0,0,1.53-1.529h0V57.52A27.1,27.1,0,0,0,43.223,8.247ZM27,58.972l-6.142-4.2L27,50.57ZM28.79,55.73V53.781a23.368,23.368,0,0,0,12.3-42.467.967.967,0,0,1-.417-.772A.983.983,0,0,1,42.2,9.711,25.315,25.315,0,0,1,28.79,55.73Z" transform="translate(3.157)" fill="#80b9c0"/><path d="M23.148,31.875,20.76,28.691a3.877,3.877,0,1,0-6.2,4.652h0l4.372,5.83a4.609,4.609,0,0,0,6.624.781h0L39.636,28.276a3.877,3.877,0,1,0-4.949-5.969h0Zm15.62-7.916a2.087,2.087,0,0,1-.275,2.94h0L24.411,38.577a2.82,2.82,0,0,1-4.05-.477h0l-4.372-5.83a2.088,2.088,0,0,1,3.34-2.505h0L22.28,33.7a.9.9,0,0,0,1.287.152h0L35.829,23.684A2.09,2.09,0,0,1,38.768,23.958Z" transform="translate(3.157)" fill="#80b9c0"/></g></svg>